<svg width="32" height="32" viewBox="0 0 32 32" fill="none" xmlns="http://www.w3.org/2000/svg">
<path opacity="0.2" fill-rule="evenodd" clip-rule="evenodd" d="M15.9998 25.3333C17.2255 25.3333 18.4392 25.0919 19.5716 24.6229C20.7039 24.1538 21.7328 23.4664 22.5995 22.5997C23.4662 21.733 24.1537 20.7041 24.6227 19.5717C25.0918 18.4393 25.3332 17.2257 25.3332 16C25.3332 14.7743 25.0918 13.5607 24.6227 12.4283C24.1537 11.2959 23.4662 10.267 22.5995 9.40034C21.7328 8.53366 20.7039 7.84617 19.5716 7.37713C18.4392 6.90809 17.2255 6.66667 15.9998 6.66667C13.5245 6.66667 11.1505 7.65 9.40018 9.40034C7.64984 11.1507 6.6665 13.5247 6.6665 16C6.6665 18.4754 7.64984 20.8493 9.40018 22.5997C11.1505 24.35 13.5245 25.3333 15.9998 25.3333ZM15.9998 29.3333C23.3638 29.3333 29.3332 23.364 29.3332 16C29.3332 8.63601 23.3638 2.66667 15.9998 2.66667C8.63584 2.66667 2.6665 8.63601 2.6665 16C2.6665 23.364 8.63584 29.3333 15.9998 29.3333Z" fill="#0D9488"/>
<path d="M2.6665 16C2.6665 8.63601 8.63584 2.66667 15.9998 2.66667V6.66667C13.5245 6.66667 11.1505 7.65 9.40018 9.40034C7.64984 11.1507 6.6665 13.5247 6.6665 16H2.6665Z" fill="#0D9488"/>
</svg>
